[img]http://img28.imageshack.us/img28/4548/averyharoldandkumar3dcha.jpg[/img]

[b][size=200][color=black]PLOT[/color][/size][/b]

[code]Six years after their Guantanamo Bay adventure, stoner buds 
Harold Lee and Kumar Patel cause a holiday fracas by inadvertently 
burning down Harold's father-in-law's prize Christmas tree. [/code]

[b][size=200][color=black]IMDB[/color][/size][/b]

[code]http://www.imdb.com/title/tt1268799/[/code]

[b][size=200][color=black]MOVIE INFO[/color][/size][/b]

[code]A Very Harold And Kumar Christmas [2011] DVDRip x264 AAC-V3nom

Format                                   : MPEG-4
Format profile                           : Base Media / Version 2
Codec ID                                 : mp42
File size                                : 356 MiB
Duration                                 : 1h 29mn
Overall bit rate mode                    : Variable
Overall bit rate                         : 556 Kbps
Encoded date                             : UTC 2012-12-08 14:12:16
Tagged date                              : UTC 2012-12-08 15:05:21

Video
ID                                       : 1
Format                                   : AVC
Format/Info                              : Advanced Video Codec
Format profile                           : Main@L2.1
Format settings, CABAC                   : Yes
Format settings, ReFrames                : 4 frames
Codec ID                                 : avc1
Codec ID/Info                            : Advanced Video Coding
Duration                                 : 1h 29mn
Bit rate mode                            : Variable
Bit rate                                 : 414 Kbps
Width                                    : 608 pixels
Height                                   : 256 pixels
Display aspect ratio                     : 2.40:1
Frame rate mode                          : Variable
Frame rate                               : 23.976 fps
Minimum frame rate                       : 23.974 fps
Maximum frame rate                       : 48.754 fps
Color space                              : YUV
Chroma subsampling                       : 4:2:0
Bit depth                                : 8 bits
Scan type                                : Progressive
Bits/(Pixel*Frame)                       : 0.111
Stream size                              : 271 MiB (76%)
Writing library                          : x264 core 112

Audio
ID                                       : 2
Format                                   : AAC
Format/Info                              : Advanced Audio Codec
Format profile                           : LC
Codec ID                                 : 40
Duration                                 : 1h 29mn
Bit rate mode                            : Variable
Bit rate                                 : 128 Kbps
Maximum bit rate                         : 248 Kbps
Channel(s)                               : 2 channels
Channel positions                        : Front: L R
Sampling rate                            : 48.0 KHz
Compression mode                         : Lossy
Delay relative to video                  : 83ms
Stream size                              : 81.9 MiB (23%)
Encoded date                             : UTC 2012-12-08 14:12:16
Tagged date                              : UTC 2012-12-08 15:05:13[/code]

[b][size=200][color=black]SOURCE[/color][/size][/b]

[code]A.Very.Harold.And.Kumar.Christmas.DVDRip.XviD-DiAMOND(Thanks)[/code]

[b][size=200][color=black]SCREENSHOTS[/color][/size][/b]

[img]http://img203.imageshack.us/img203/5387/averyharoldandkumarchri.jpg[/img]

[img]http://kastatic.com/i2/users/133df62bbf28e62494bb17fe11078f1a.gif[/img][img]http://kastatic.com/i2/users/133df62bbf28e62494bb17fe11078f1a.gif[/img]